<svg width="281" height="28" viewBox="0 0 281 28" fill="none" xmlns="http://www.w3.org/2000/svg">
<path d="M0.952 1.8H5.704V22.464H17.152V27H0.952V1.8ZM37.107 18.288C37.107 19.776 36.855 21.096 36.351 22.248C35.847 23.376 35.163 24.336 34.299 25.128C33.435 25.896 32.439 26.484 31.311 26.892C30.207 27.3 29.043 27.504 27.819 27.504C26.595 27.504 25.419 27.3 24.291 26.892C23.187 26.484 22.203 25.896 21.339 25.128C20.475 24.336 19.791 23.376 19.287 22.248C18.783 21.096 18.531 19.776 18.531 18.288V17.856C18.531 16.392 18.783 15.096 19.287 13.968C19.791 12.816 20.475 11.844 21.339 11.052C22.203 10.26 23.187 9.66 24.291 9.252C25.419 8.844 26.595 8.64 27.819 8.64C29.043 8.64 30.207 8.844 31.311 9.252C32.439 9.66 33.435 10.26 34.299 11.052C35.163 11.844 35.847 12.816 36.351 13.968C36.855 15.096 37.107 16.392 37.107 17.856V18.288ZM27.819 23.184C28.467 23.184 29.079 23.076 29.655 22.86C30.231 22.644 30.735 22.332 31.167 21.924C31.599 21.516 31.935 21.024 32.175 20.448C32.439 19.848 32.571 19.176 32.571 18.432V17.712C32.571 16.968 32.439 16.308 32.175 15.732C31.935 15.132 31.599 14.628 31.167 14.22C30.735 13.812 30.231 13.5 29.655 13.284C29.079 13.068 28.467 12.96 27.819 12.96C27.171 12.96 26.559 13.068 25.983 13.284C25.407 13.5 24.903 13.812 24.471 14.22C24.039 14.628 23.691 15.132 23.427 15.732C23.187 16.308 23.067 16.968 23.067 17.712V18.432C23.067 19.176 23.187 19.848 23.427 20.448C23.691 21.024 24.039 21.516 24.471 21.924C24.903 22.332 25.407 22.644 25.983 22.86C26.559 23.076 27.171 23.184 27.819 23.184ZM37.5499 9.144H45.1099V11.736H45.7579C46.0939 10.752 46.6579 9.996 47.4499 9.468C48.2659 8.916 49.2379 8.64 50.3659 8.64C52.1419 8.64 53.5699 9.204 54.6499 10.332C55.7299 11.436 56.2699 13.128 56.2699 15.408V16.2L51.5899 16.632V16.128C51.5899 15.144 51.3379 14.364 50.8339 13.788C50.3299 13.188 49.5739 12.888 48.5659 12.888C47.5579 12.888 46.7659 13.236 46.1899 13.932C45.6139 14.628 45.3259 15.624 45.3259 16.92V22.68H49.4299V27H37.1179V22.68H40.7899V13.464H37.5499V9.144ZM61.2129 19.548C61.2369 20.076 61.3569 20.568 61.5729 21.024C61.8129 21.456 62.1249 21.84 62.5089 22.176C62.9169 22.488 63.3729 22.74 63.8769 22.932C64.4049 23.1 64.9569 23.184 65.5329 23.184C66.6609 23.184 67.5249 22.992 68.1249 22.608C68.7249 22.2 69.1569 21.72 69.4209 21.168L73.3089 23.328C73.0929 23.784 72.7929 24.264 72.4089 24.768C72.0249 25.248 71.5209 25.692 70.8969 26.1C70.2969 26.508 69.5529 26.844 68.6649 27.108C67.8009 27.372 66.7809 27.504 65.6049 27.504C64.2609 27.504 63.0369 27.288 61.9329 26.856C60.8289 26.424 59.8689 25.8 59.0529 24.984C58.2609 24.168 57.6369 23.172 57.1809 21.996C56.7489 20.82 56.5329 19.488 56.5329 18V17.784C56.5329 16.416 56.7609 15.168 57.2169 14.04C57.6969 12.912 58.3449 11.952 59.1609 11.16C59.9769 10.368 60.9249 9.756 62.0049 9.324C63.1089 8.868 64.2849 8.64 65.5329 8.64C67.0689 8.64 68.3889 8.916 69.4929 9.468C70.5969 9.996 71.5089 10.68 72.2289 11.52C72.9489 12.336 73.4769 13.248 73.8129 14.256C74.1489 15.24 74.3169 16.2 74.3169 17.136V19.548H61.2129ZM65.4969 12.744C64.3449 12.744 63.4089 13.044 62.6889 13.644C61.9689 14.22 61.5009 14.892 61.2849 15.66H69.7089C69.5649 14.82 69.1089 14.124 68.3409 13.572C67.5969 13.02 66.6489 12.744 65.4969 12.744ZM80.5559 27H76.0199V9.144H80.5559V11.808H81.2039C81.6119 10.8 82.2719 10.02 83.1839 9.468C84.0959 8.916 85.1639 8.64 86.3879 8.64C87.2519 8.64 88.0559 8.784 88.7999 9.072C89.5679 9.336 90.2399 9.756 90.8159 10.332C91.3919 10.908 91.8359 11.64 92.1479 12.528C92.4839 13.416 92.6519 14.472 92.6519 15.696V27H88.1159V16.848C88.1159 15.576 87.8039 14.58 87.1799 13.86C86.5799 13.116 85.7039 12.744 84.5519 12.744C83.2079 12.744 82.1999 13.2 81.5279 14.112C80.8799 15 80.5559 16.2 80.5559 17.712V27ZM110.843 22.68V27H95.2908V19.44L106.523 13.968V13.32H95.5068V9.144H110.411V16.488L99.1788 22.032V22.68H110.843ZM131.122 18.288C131.122 19.776 130.87 21.096 130.366 22.248C129.862 23.376 129.178 24.336 128.314 25.128C127.45 25.896 126.454 26.484 125.326 26.892C124.222 27.3 123.058 27.504 121.834 27.504C120.61 27.504 119.434 27.3 118.306 26.892C117.202 26.484 116.218 25.896 115.354 25.128C114.49 24.336 113.806 23.376 113.302 22.248C112.798 21.096 112.546 19.776 112.546 18.288V17.856C112.546 16.392 112.798 15.096 113.302 13.968C113.806 12.816 114.49 11.844 115.354 11.052C116.218 10.26 117.202 9.66 118.306 9.252C119.434 8.844 120.61 8.64 121.834 8.64C123.058 8.64 124.222 8.844 125.326 9.252C126.454 9.66 127.45 10.26 128.314 11.052C129.178 11.844 129.862 12.816 130.366 13.968C130.87 15.096 131.122 16.392 131.122 17.856V18.288ZM121.834 23.184C122.482 23.184 123.094 23.076 123.67 22.86C124.246 22.644 124.75 22.332 125.182 21.924C125.614 21.516 125.95 21.024 126.19 20.448C126.454 19.848 126.586 19.176 126.586 18.432V17.712C126.586 16.968 126.454 16.308 126.19 15.732C125.95 15.132 125.614 14.628 125.182 14.22C124.75 13.812 124.246 13.5 123.67 13.284C123.094 13.068 122.482 12.96 121.834 12.96C121.186 12.96 120.574 13.068 119.998 13.284C119.422 13.5 118.918 13.812 118.486 14.22C118.054 14.628 117.706 15.132 117.442 15.732C117.202 16.308 117.082 16.968 117.082 17.712V18.432C117.082 19.176 117.202 19.848 117.442 20.448C117.706 21.024 118.054 21.516 118.486 21.924C118.918 22.332 119.422 22.644 119.998 22.86C120.574 23.076 121.186 23.184 121.834 23.184ZM157.784 14.256H168.584V27H164.264V24.192H163.616C163.328 25.128 162.776 25.92 161.96 26.568C161.144 27.192 159.92 27.504 158.288 27.504C157.136 27.504 156.056 27.288 155.048 26.856C154.04 26.424 153.164 25.788 152.42 24.948C151.676 24.084 151.088 23.028 150.656 21.78C150.224 20.508 150.008 19.032 150.008 17.352V11.448C150.008 9.816 150.236 8.376 150.692 7.128C151.172 5.856 151.82 4.788 152.636 3.924C153.476 3.06 154.472 2.412 155.624 1.98C156.776 1.524 158.048 1.296 159.44 1.296C160.88 1.296 162.164 1.536 163.292 2.016C164.42 2.472 165.38 3.12 166.172 3.96C166.964 4.776 167.564 5.748 167.972 6.876C168.38 7.98 168.584 9.168 168.584 10.44V10.872H163.832V10.44C163.832 8.928 163.436 7.788 162.644 7.02C161.876 6.228 160.784 5.832 159.368 5.832C158.024 5.832 156.92 6.288 156.056 7.2C155.192 8.088 154.76 9.624 154.76 11.808V17.136C154.76 21.024 156.344 22.968 159.512 22.968C160.928 22.968 161.996 22.596 162.716 21.852C163.46 21.084 163.832 20.064 163.832 18.792H157.784V14.256ZM169.927 22.68H176.191V6.12H170.143V1.8H180.727V22.68H186.559V27H169.927V22.68ZM189.162 22.68H195.21V13.464H189.594V9.144H199.746V22.68H204.93V27H189.162V22.68ZM200.862 3.852C200.862 4.332 200.766 4.788 200.574 5.22C200.406 5.628 200.166 5.988 199.854 6.3C199.542 6.588 199.17 6.828 198.738 7.02C198.33 7.188 197.898 7.272 197.442 7.272C196.962 7.272 196.518 7.188 196.11 7.02C195.702 6.828 195.342 6.588 195.03 6.3C194.718 5.988 194.466 5.628 194.274 5.22C194.106 4.788 194.022 4.332 194.022 3.852C194.022 3.372 194.106 2.928 194.274 2.52C194.466 2.088 194.718 1.728 195.03 1.44C195.342 1.128 195.702 0.887999 196.11 0.719999C196.518 0.527999 196.962 0.431999 197.442 0.431999C197.898 0.431999 198.33 0.527999 198.738 0.719999C199.17 0.887999 199.542 1.128 199.854 1.44C200.166 1.728 200.406 2.088 200.574 2.52C200.766 2.928 200.862 3.372 200.862 3.852ZM213.329 14.184C213.329 14.76 213.629 15.18 214.229 15.444C214.829 15.684 215.921 15.888 217.505 16.056C219.329 16.248 220.817 16.8 221.969 17.712C223.121 18.6 223.697 19.848 223.697 21.456V21.672C223.697 23.448 223.049 24.864 221.753 25.92C220.457 26.976 218.633 27.504 216.281 27.504C214.889 27.504 213.701 27.324 212.717 26.964C211.733 26.604 210.917 26.16 210.269 25.632C209.621 25.08 209.117 24.48 208.757 23.832C208.421 23.16 208.193 22.512 208.073 21.888L212.249 20.52C212.441 21.288 212.837 21.96 213.437 22.536C214.061 23.112 215.009 23.4 216.281 23.4C217.409 23.4 218.177 23.232 218.585 22.896C219.017 22.536 219.233 22.152 219.233 21.744C219.233 21.504 219.173 21.288 219.053 21.096C218.957 20.88 218.765 20.688 218.477 20.52C218.189 20.328 217.793 20.172 217.289 20.052C216.809 19.932 216.197 19.836 215.453 19.764C213.437 19.596 211.829 19.08 210.629 18.216C209.453 17.328 208.865 16.032 208.865 14.328V14.112C208.865 13.224 209.057 12.444 209.441 11.772C209.825 11.1 210.329 10.536 210.953 10.08C211.577 9.6 212.297 9.24 213.113 9C213.929 8.76 214.769 8.64 215.633 8.64C216.761 8.64 217.733 8.784 218.549 9.072C219.389 9.336 220.097 9.696 220.673 10.152C221.249 10.584 221.717 11.076 222.077 11.628C222.437 12.156 222.713 12.672 222.905 13.176L218.801 14.832C218.585 14.184 218.213 13.68 217.685 13.32C217.157 12.936 216.473 12.744 215.633 12.744C214.865 12.744 214.289 12.888 213.905 13.176C213.521 13.44 213.329 13.776 213.329 14.184ZM243.94 18.288C243.94 19.776 243.688 21.096 243.184 22.248C242.68 23.376 241.996 24.336 241.132 25.128C240.268 25.896 239.272 26.484 238.144 26.892C237.04 27.3 235.876 27.504 234.652 27.504C233.428 27.504 232.252 27.3 231.124 26.892C230.02 26.484 229.036 25.896 228.172 25.128C227.308 24.336 226.624 23.376 226.12 22.248C225.616 21.096 225.364 19.776 225.364 18.288V17.856C225.364 16.392 225.616 15.096 226.12 13.968C226.624 12.816 227.308 11.844 228.172 11.052C229.036 10.26 230.02 9.66 231.124 9.252C232.252 8.844 233.428 8.64 234.652 8.64C235.876 8.64 237.04 8.844 238.144 9.252C239.272 9.66 240.268 10.26 241.132 11.052C241.996 11.844 242.68 12.816 243.184 13.968C243.688 15.096 243.94 16.392 243.94 17.856V18.288ZM234.652 23.184C235.3 23.184 235.912 23.076 236.488 22.86C237.064 22.644 237.568 22.332 238 21.924C238.432 21.516 238.768 21.024 239.008 20.448C239.272 19.848 239.404 19.176 239.404 18.432V17.712C239.404 16.968 239.272 16.308 239.008 15.732C238.768 15.132 238.432 14.628 238 14.22C237.568 13.812 237.064 13.5 236.488 13.284C235.912 13.068 235.3 12.96 234.652 12.96C234.004 12.96 233.392 13.068 232.816 13.284C232.24 13.5 231.736 13.812 231.304 14.22C230.872 14.628 230.524 15.132 230.26 15.732C230.02 16.308 229.9 16.968 229.9 17.712V18.432C229.9 19.176 230.02 19.848 230.26 20.448C230.524 21.024 230.872 21.516 231.304 21.924C231.736 22.332 232.24 22.644 232.816 22.86C233.392 23.076 234.004 23.184 234.652 23.184ZM249.783 27H245.247V9.144H249.783V11.808H250.431C250.839 10.8 251.499 10.02 252.411 9.468C253.323 8.916 254.391 8.64 255.615 8.64C256.479 8.64 257.283 8.784 258.027 9.072C258.795 9.336 259.467 9.756 260.043 10.332C260.619 10.908 261.063 11.64 261.375 12.528C261.711 13.416 261.879 14.472 261.879 15.696V27H257.343V16.848C257.343 15.576 257.031 14.58 256.407 13.86C255.807 13.116 254.931 12.744 253.779 12.744C252.435 12.744 251.427 13.2 250.755 14.112C250.107 15 249.783 16.2 249.783 17.712V27ZM264.374 22.68H270.422V13.464H264.806V9.144H274.958V22.68H280.142V27H264.374V22.68ZM276.074 3.852C276.074 4.332 275.978 4.788 275.786 5.22C275.618 5.628 275.378 5.988 275.066 6.3C274.754 6.588 274.382 6.828 273.95 7.02C273.542 7.188 273.11 7.272 272.654 7.272C272.174 7.272 271.73 7.188 271.322 7.02C270.914 6.828 270.554 6.588 270.242 6.3C269.93 5.988 269.678 5.628 269.486 5.22C269.318 4.788 269.234 4.332 269.234 3.852C269.234 3.372 269.318 2.928 269.486 2.52C269.678 2.088 269.93 1.728 270.242 1.44C270.554 1.128 270.914 0.887999 271.322 0.719999C271.73 0.527999 272.174 0.431999 272.654 0.431999C273.11 0.431999 273.542 0.527999 273.95 0.719999C274.382 0.887999 274.754 1.128 275.066 1.44C275.378 1.728 275.618 2.088 275.786 2.52C275.978 2.928 276.074 3.372 276.074 3.852Z" fill="#6DC2CB"/>
</svg>
