<svg width="33" height="33" viewBox="0 0 33 33" fill="none" xmlns="http://www.w3.org/2000/svg">
<path fill-rule="evenodd" clip-rule="evenodd" d="M17.559 0.00435964C24.258 0.143767 29.9568 4.59108 32.0725 10.9387C34.2382 17.4364 32.6127 24.688 27.1792 28.8671C21.2415 33.4339 12.9972 34.6468 6.89189 30.3059C0.625027 25.8501 -1.49528 17.54 1.05583 10.2933C3.43339 3.53945 10.3904 -0.144819 17.559 0.00435964Z" fill="#6DC2CB" fill-opacity="0.6"/>
<path d="M21.14 20.48V23H11.3V20.24C11.3 19.5067 11.4067 18.88 11.62 18.36C11.8467 17.84 12.16 17.4 12.56 17.04C12.9733 16.68 13.4667 16.3867 14.04 16.16C14.6133 15.92 15.26 15.72 15.98 15.56C16.5133 15.44 16.9467 15.3067 17.28 15.16C17.6267 15 17.9 14.8267 18.1 14.64C18.3 14.44 18.4333 14.2267 18.5 14C18.58 13.76 18.62 13.4933 18.62 13.2C18.62 12.64 18.4133 12.1733 18 11.8C17.6 11.4267 17.04 11.24 16.32 11.24C15.56 11.24 14.9533 11.4733 14.5 11.94C14.0467 12.3933 13.82 13.0267 13.82 13.84V14.72H11.18V13.6C11.18 12.9467 11.2933 12.3267 11.52 11.74C11.76 11.14 12.0933 10.62 12.52 10.18C12.96 9.72667 13.4933 9.37333 14.12 9.12C14.7467 8.85333 15.4533 8.72 16.24 8.72C17.08 8.72 17.8133 8.84667 18.44 9.1C19.0667 9.34 19.5867 9.66 20 10.06C20.4267 10.46 20.74 10.9267 20.94 11.46C21.1533 11.98 21.26 12.52 21.26 13.08V13.32C21.26 14.4933 20.9267 15.4667 20.26 16.24C19.6067 17.0133 18.5333 17.5733 17.04 17.92C16.4133 18.0667 15.8933 18.22 15.48 18.38C15.08 18.5267 14.7667 18.6933 14.54 18.88C14.3133 19.0667 14.1533 19.2733 14.06 19.5C13.98 19.7133 13.94 19.96 13.94 20.24V20.48H21.14Z" fill="#2F2F2F" fill-opacity="0.8"/>
</svg>
