<svg width="33" height="33" viewBox="0 0 33 33" fill="none" xmlns="http://www.w3.org/2000/svg">
<path fill-rule="evenodd" clip-rule="evenodd" d="M17.559 0.00435964C24.258 0.143767 29.9568 4.59108 32.0725 10.9387C34.2382 17.4364 32.6127 24.688 27.1792 28.8671C21.2415 33.4339 12.9972 34.6468 6.89189 30.3059C0.625027 25.8501 -1.49528 17.54 1.05583 10.2933C3.43339 3.53945 10.3904 -0.144819 17.559 0.00435964Z" fill="#6DC2CB" fill-opacity="0.6"/>
<path d="M14.76 17V12.84L18.24 11.88V11.52H11.28V9H20.4V13.4L16.68 14.48V14.84H17.16C17.6533 14.84 18.14 14.92 18.62 15.08C19.1 15.2267 19.52 15.46 19.88 15.78C20.2533 16.1 20.5533 16.5 20.78 16.98C21.0067 17.4467 21.12 18 21.12 18.64V18.88C21.12 19.5067 21.0133 20.0867 20.8 20.62C20.6 21.1533 20.2933 21.62 19.88 22.02C19.48 22.4067 18.98 22.7133 18.38 22.94C17.78 23.1667 17.0933 23.28 16.32 23.28C15.5333 23.28 14.82 23.1533 14.18 22.9C13.54 22.6467 12.9933 22.3 12.54 21.86C12.1 21.42 11.76 20.9133 11.52 20.34C11.28 19.7667 11.16 19.16 11.16 18.52V17.68H13.8V18.4C13.8 19.04 14.0067 19.5933 14.42 20.06C14.8333 20.5267 15.4533 20.76 16.28 20.76C16.9867 20.76 17.5267 20.58 17.9 20.22C18.2867 19.86 18.48 19.3867 18.48 18.8C18.48 18.1733 18.2733 17.72 17.86 17.44C17.46 17.1467 16.9467 17 16.32 17H14.76Z" fill="#2F2F2F" fill-opacity="0.8"/>
</svg>
