<svg width="945" height="316" viewBox="0 0 945 316" fill="none" xmlns="http://www.w3.org/2000/svg">
<path d="M62.0254 191C62.0254 191 78.0254 262.5 150.525 259C223.025 255.5 238.025 191 238.025 191" stroke="#6DC2CB" stroke-opacity="0.2" stroke-width="2" stroke-linecap="round" stroke-linejoin="round" stroke-dasharray="7 12"/>
<path d="M62.0254 162C62.0254 162 98.8436 18.2116 265.676 25.2502C432.508 32.2888 467.025 162 467.025 162" stroke="#6DC2CB" stroke-opacity="0.2" stroke-width="2" stroke-linecap="round" stroke-linejoin="round" stroke-dasharray="7 12"/>
<path d="M238.025 191C238.025 191 258.844 234.032 353.176 231.925C447.508 229.819 467.025 191 467.025 191" stroke="#6DC2CB" stroke-opacity="0.2" stroke-width="2" stroke-linecap="round" stroke-linejoin="round" stroke-dasharray="7 12"/>
<path d="M243.025 162C243.025 162 263.389 62.2927 355.662 67.1735C447.934 72.0543 467.025 162 467.025 162" stroke="#6DC2CB" stroke-opacity="0.2" stroke-width="2" stroke-linecap="round" stroke-linejoin="round" stroke-dasharray="7 12"/>
<path d="M643.025 162C643.025 162 627.025 62.2927 554.525 67.1735C482.025 72.0543 467.025 162 467.025 162" stroke="#6DC2CB" stroke-opacity="0.2" stroke-width="2" stroke-linecap="round" stroke-linejoin="round" stroke-dasharray="7 12"/>
<path d="M891.025 162C891.025 162 852.48 -5.92801 677.821 2.29224C503.162 10.5125 467.025 162 467.025 162" stroke="#6DC2CB" stroke-opacity="0.2" stroke-width="2" stroke-linecap="round" stroke-linejoin="round" stroke-dasharray="7 12"/>
<path d="M467.025 191C467.025 191 483.025 292.806 555.525 287.823C628.025 282.839 643.025 191 643.025 191" stroke="#6DC2CB" stroke-opacity="0.2" stroke-width="2" stroke-linecap="round" stroke-linejoin="round" stroke-dasharray="7 12"/>
<path d="M643.025 191C643.025 191 665.571 292.806 767.73 287.823C869.889 282.839 891.025 191 891.025 191" stroke="#6DC2CB" stroke-opacity="0.2" stroke-width="2" stroke-linecap="round" stroke-linejoin="round" stroke-dasharray="7 12"/>
<path d="M238.025 191C238.025 191 297.389 320.095 566.381 313.775C835.372 307.456 891.025 191 891.025 191" stroke="#6DC2CB" stroke-opacity="0.2" stroke-width="2" stroke-linecap="round" stroke-linejoin="round" stroke-dasharray="7 12"/>
<path d="M643.025 162C643.025 162 665.571 67.5405 767.73 72.1644C869.889 76.7883 891.025 162 891.025 162" stroke="#6DC2CB" stroke-opacity="0.2" stroke-width="2" stroke-linecap="round" stroke-linejoin="round" stroke-dasharray="7 12"/>
<path d="M238.025 191C238.025 191 274.844 285.46 441.676 280.836C608.508 276.212 643.025 191 643.025 191" stroke="#6DC2CB" stroke-opacity="0.2" stroke-width="2" stroke-linecap="round" stroke-linejoin="round" stroke-dasharray="7 12"/>
<path d="M14.088 170.36C14.088 167.216 11.856 165.2 8.736 165.2H1.512V182H4.296V175.52H7.44L10.68 182H13.824L10.272 175.352C12.528 174.776 14.088 172.976 14.088 170.36ZM4.296 167.72H8.448C10.2 167.72 11.304 168.728 11.304 170.36C11.304 171.992 10.2 173.024 8.448 173.024H4.296V167.72ZM16.0131 176.024C16.0131 179.744 18.4611 182.336 22.0611 182.336C25.3251 182.336 26.7171 180.464 27.4131 179.216L25.2291 178.04C24.7491 179.072 23.9091 180.056 22.1091 180.056C20.2131 180.056 18.8211 178.736 18.7251 176.912H27.7011V175.832C27.7011 172.208 25.3971 169.808 21.9651 169.808C18.4851 169.808 16.0131 172.328 16.0131 176.024ZM18.7491 174.872C18.9651 173.216 20.1171 172.088 21.9411 172.088C23.6931 172.088 24.8691 173.168 25.0131 174.872H18.7491ZM30.0523 173.408C30.0523 175.664 31.9243 176.552 34.3243 176.984L35.1403 177.128C36.7003 177.416 37.4923 177.8 37.4923 178.712C37.4923 179.624 36.6523 180.296 35.1403 180.296C33.6043 180.296 32.3563 179.672 32.0203 177.728L29.5723 178.328C29.9803 180.968 32.0923 182.336 35.1403 182.336C38.1163 182.336 40.0363 180.944 40.0363 178.52C40.0363 176.096 38.0923 175.4 35.5003 174.92L34.6843 174.776C33.3883 174.536 32.5963 174.152 32.5963 173.24C32.5963 172.376 33.3643 171.848 34.6603 171.848C35.9563 171.848 36.8923 172.4 37.1803 173.84L39.5803 173.12C39.0523 171.128 37.3243 169.832 34.6603 169.832C31.8763 169.832 30.0523 171.128 30.0523 173.408ZM42.0277 176.024C42.0277 179.744 44.4757 182.336 48.0757 182.336C51.3397 182.336 52.7317 180.464 53.4277 179.216L51.2437 178.04C50.7637 179.072 49.9237 180.056 48.1237 180.056C46.2277 180.056 44.8357 178.736 44.7397 176.912H53.7157V175.832C53.7157 172.208 51.4117 169.808 47.9797 169.808C44.4997 169.808 42.0277 172.328 42.0277 176.024ZM44.7637 174.872C44.9797 173.216 46.1317 172.088 47.9557 172.088C49.7077 172.088 50.8837 173.168 51.0277 174.872H44.7637ZM56.0904 173.24L58.5384 174.056C58.7784 172.832 59.6184 171.944 61.2744 171.944C62.9304 171.944 63.7224 172.88 63.7224 174.152V174.872H60.2184C57.5784 174.872 55.6824 176.12 55.6824 178.568C55.6824 180.968 57.5784 182.336 60.0264 182.336C62.2824 182.336 63.1224 181.16 63.4584 180.512H63.7704V182H66.2904V174.344C66.2904 171.44 64.3704 169.808 61.2984 169.808C58.2504 169.808 56.6664 171.392 56.0904 173.24ZM58.3224 178.496C58.3224 177.512 59.1144 176.912 60.3864 176.912H63.7224V177.128C63.7224 179 62.4024 180.176 60.5304 180.176C59.1144 180.176 58.3224 179.504 58.3224 178.496ZM72.1513 170.168H69.5833V182H72.1993V174.992C72.1993 173.192 73.3273 172.352 74.9113 172.352H76.7353V170.12H75.3673C73.8313 170.12 72.8713 170.576 72.3913 171.8H72.1513V170.168ZM77.8037 176.072C77.8037 179.744 80.5157 182.336 83.9717 182.336C87.2357 182.336 89.1797 180.392 89.8037 177.8L87.2357 177.2C86.9717 178.856 85.9637 180.032 83.9957 180.032C81.9797 180.032 80.4437 178.52 80.4437 176.072C80.4437 173.648 81.9797 172.136 83.9957 172.136C85.9157 172.136 86.9717 173.336 87.1637 174.92L89.7077 174.392C89.2277 171.776 87.2117 169.832 83.9477 169.832C80.5157 169.832 77.8037 172.4 77.8037 176.072ZM92.4105 165.2V182H95.0265V175.928C95.0265 173.48 96.2985 172.112 98.2665 172.112C100.019 172.112 101.051 173.048 101.051 175.04V182H103.691V174.896C103.691 171.872 101.771 169.952 99.0585 169.952C96.8025 169.952 95.7705 170.96 95.2665 171.896H95.0265V165.2H92.4105Z" fill="#2F2F2F"/>
<path d="M1.15939 59.4V72H5.29939C8.66539 72 10.4834 70.29 10.4834 66.87V64.53C10.4834 61.11 8.66539 59.4 5.29939 59.4H1.15939ZM3.24739 61.29H5.31739C7.40539 61.29 8.41339 62.37 8.41339 64.458V66.942C8.41339 69.03 7.42339 70.11 5.31739 70.11H3.24739V61.29ZM12.0879 67.518C12.0879 70.308 13.9239 72.252 16.6239 72.252C19.0719 72.252 20.1159 70.848 20.6379 69.912L18.9999 69.03C18.6399 69.804 18.0099 70.542 16.6599 70.542C15.2379 70.542 14.1939 69.552 14.1219 68.184H20.8539V67.374C20.8539 64.656 19.1259 62.856 16.5519 62.856C13.9419 62.856 12.0879 64.746 12.0879 67.518ZM14.1399 66.654C14.3019 65.412 15.1659 64.566 16.5339 64.566C17.8479 64.566 18.7299 65.376 18.8379 66.654H14.1399ZM22.6174 65.556C22.6174 67.248 24.0214 67.914 25.8214 68.238L26.4334 68.346C27.6034 68.562 28.1974 68.85 28.1974 69.534C28.1974 70.218 27.5674 70.722 26.4334 70.722C25.2814 70.722 24.3454 70.254 24.0934 68.796L22.2574 69.246C22.5634 71.226 24.1474 72.252 26.4334 72.252C28.6654 72.252 30.1054 71.208 30.1054 69.39C30.1054 67.572 28.6474 67.05 26.7034 66.69L26.0914 66.582C25.1194 66.402 24.5254 66.114 24.5254 65.43C24.5254 64.782 25.1014 64.386 26.0734 64.386C27.0454 64.386 27.7474 64.8 27.9634 65.88L29.7634 65.34C29.3674 63.846 28.0714 62.874 26.0734 62.874C23.9854 62.874 22.6174 63.846 22.6174 65.556ZM31.6709 60.48C31.6709 61.308 32.3009 61.884 33.1289 61.884C33.9569 61.884 34.5869 61.308 34.5869 60.48C34.5869 59.634 33.9569 59.058 33.1289 59.058C32.3009 59.058 31.6709 59.634 31.6709 60.48ZM34.1189 63.126H32.1569V72H34.1189V63.126ZM43.4861 63.126V64.422H43.3061C42.7661 63.612 41.8661 62.874 40.2281 62.874C38.0501 62.874 36.1601 64.656 36.1601 67.428C36.1601 70.2 38.0501 72 40.2281 72C41.8661 72 42.7661 71.244 43.2701 70.488H43.4501V71.442C43.4501 73.278 42.3701 74.178 40.7681 74.178C39.1661 74.178 38.3741 73.278 38.0501 72.252L36.2861 73.008C36.7361 74.322 38.0861 75.852 40.8041 75.852C43.5941 75.852 45.4301 74.322 45.4301 71.496V63.126H43.4861ZM40.8041 70.29C39.2561 70.29 38.1401 69.192 38.1401 67.428C38.1401 65.664 39.2561 64.566 40.8041 64.566C42.3521 64.566 43.4861 65.682 43.4861 67.428C43.4861 69.192 42.3521 70.29 40.8041 70.29ZM48.0117 63.126V72H49.9737V67.446C49.9737 65.61 50.9277 64.584 52.4037 64.584C53.7177 64.584 54.4917 65.286 54.4917 66.78V72H56.4717V66.672C56.4717 64.404 55.0317 62.964 52.9977 62.964C51.3057 62.964 50.5137 63.72 50.1177 64.494H49.9377V63.126H48.0117ZM63.4934 59.4V61.29H67.4354V72H69.5054V61.29H73.4474V59.4H63.4934ZM75.1249 59.4V72H77.0869V67.446C77.0869 65.61 78.0409 64.584 79.5169 64.584C80.8309 64.584 81.6049 65.286 81.6049 66.78V72H83.5849V66.672C83.5849 64.404 82.1449 62.964 80.1109 62.964C78.4189 62.964 77.6449 63.72 77.2669 64.422H77.0869V59.4H75.1249ZM85.5809 60.48C85.5809 61.308 86.2109 61.884 87.0389 61.884C87.8669 61.884 88.4969 61.308 88.4969 60.48C88.4969 59.634 87.8669 59.058 87.0389 59.058C86.2109 59.058 85.5809 59.634 85.5809 60.48ZM88.0289 63.126H86.0669V72H88.0289V63.126ZM90.6281 63.126V72H92.5901V67.446C92.5901 65.61 93.5441 64.584 95.0201 64.584C96.3341 64.584 97.1081 65.286 97.1081 66.78V72H99.0881V66.672C99.0881 64.404 97.6481 62.964 95.6141 62.964C93.9221 62.964 93.1301 63.72 92.7341 64.494H92.5541V63.126H90.6281ZM110.57 63.126H107.636L103.532 66.726V59.4H101.57V72H103.532V69.138L104.972 67.896L108.068 72H110.498L106.394 66.69L110.57 63.126ZM111.745 60.48C111.745 61.308 112.375 61.884 113.203 61.884C114.031 61.884 114.661 61.308 114.661 60.48C114.661 59.634 114.031 59.058 113.203 59.058C112.375 59.058 111.745 59.634 111.745 60.48ZM114.193 63.126H112.231V72H114.193V63.126ZM116.792 63.126V72H118.754V67.446C118.754 65.61 119.708 64.584 121.184 64.584C122.498 64.584 123.272 65.286 123.272 66.78V72H125.252V66.672C125.252 64.404 123.812 62.964 121.778 62.964C120.086 62.964 119.294 63.72 118.898 64.494H118.718V63.126H116.792ZM134.502 63.126V64.422H134.322C133.782 63.612 132.882 62.874 131.244 62.874C129.066 62.874 127.176 64.656 127.176 67.428C127.176 70.2 129.066 72 131.244 72C132.882 72 133.782 71.244 134.286 70.488H134.466V71.442C134.466 73.278 133.386 74.178 131.784 74.178C130.182 74.178 129.39 73.278 129.066 72.252L127.302 73.008C127.752 74.322 129.102 75.852 131.82 75.852C134.61 75.852 136.446 74.322 136.446 71.496V63.126H134.502ZM131.82 70.29C130.272 70.29 129.156 69.192 129.156 67.428C129.156 65.664 130.272 64.566 131.82 64.566C133.368 64.566 134.502 65.682 134.502 67.428C134.502 69.192 133.368 70.29 131.82 70.29Z" fill="#2F2F2F" fill-opacity="0.8"/>
<path d="M429.159 59.4V72H433.299C436.665 72 438.483 70.29 438.483 66.87V64.53C438.483 61.11 436.665 59.4 433.299 59.4H429.159ZM431.247 61.29H433.317C435.405 61.29 436.413 62.37 436.413 64.458V66.942C436.413 69.03 435.423 70.11 433.317 70.11H431.247V61.29ZM440.088 67.518C440.088 70.308 441.924 72.252 444.624 72.252C447.072 72.252 448.116 70.848 448.638 69.912L447 69.03C446.64 69.804 446.01 70.542 444.66 70.542C443.238 70.542 442.194 69.552 442.122 68.184H448.854V67.374C448.854 64.656 447.126 62.856 444.552 62.856C441.942 62.856 440.088 64.746 440.088 67.518ZM442.14 66.654C442.302 65.412 443.166 64.566 444.534 64.566C445.848 64.566 446.73 65.376 446.838 66.654H442.14ZM450.617 65.556C450.617 67.248 452.021 67.914 453.821 68.238L454.433 68.346C455.603 68.562 456.197 68.85 456.197 69.534C456.197 70.218 455.567 70.722 454.433 70.722C453.281 70.722 452.345 70.254 452.093 68.796L450.257 69.246C450.563 71.226 452.147 72.252 454.433 72.252C456.665 72.252 458.105 71.208 458.105 69.39C458.105 67.572 456.647 67.05 454.703 66.69L454.091 66.582C453.119 66.402 452.525 66.114 452.525 65.43C452.525 64.782 453.101 64.386 454.073 64.386C455.045 64.386 455.747 64.8 455.963 65.88L457.763 65.34C457.367 63.846 456.071 62.874 454.073 62.874C451.985 62.874 450.617 63.846 450.617 65.556ZM459.671 60.48C459.671 61.308 460.301 61.884 461.129 61.884C461.957 61.884 462.587 61.308 462.587 60.48C462.587 59.634 461.957 59.058 461.129 59.058C460.301 59.058 459.671 59.634 459.671 60.48ZM462.119 63.126H460.157V72H462.119V63.126ZM471.486 63.126V64.422H471.306C470.766 63.612 469.866 62.874 468.228 62.874C466.05 62.874 464.16 64.656 464.16 67.428C464.16 70.2 466.05 72 468.228 72C469.866 72 470.766 71.244 471.27 70.488H471.45V71.442C471.45 73.278 470.37 74.178 468.768 74.178C467.166 74.178 466.374 73.278 466.05 72.252L464.286 73.008C464.736 74.322 466.086 75.852 468.804 75.852C471.594 75.852 473.43 74.322 473.43 71.496V63.126H471.486ZM468.804 70.29C467.256 70.29 466.14 69.192 466.14 67.428C466.14 65.664 467.256 64.566 468.804 64.566C470.352 64.566 471.486 65.682 471.486 67.428C471.486 69.192 470.352 70.29 468.804 70.29ZM476.012 63.126V72H477.974V67.446C477.974 65.61 478.928 64.584 480.404 64.584C481.718 64.584 482.492 65.286 482.492 66.78V72H484.472V66.672C484.472 64.404 483.032 62.964 480.998 62.964C479.306 62.964 478.514 63.72 478.118 64.494H477.938V63.126H476.012ZM492.429 59.4V72H496.569C499.935 72 501.753 70.29 501.753 66.87V64.53C501.753 61.11 499.935 59.4 496.569 59.4H492.429ZM494.517 61.29H496.587C498.675 61.29 499.683 62.37 499.683 64.458V66.942C499.683 69.03 498.693 70.11 496.587 70.11H494.517V61.29ZM503.358 67.554C503.358 70.434 505.32 72.252 507.984 72.252C510.648 72.252 512.592 70.434 512.592 67.554C512.592 64.692 510.648 62.874 507.984 62.874C505.32 62.874 503.358 64.692 503.358 67.554ZM505.338 67.554C505.338 65.736 506.418 64.602 507.984 64.602C509.532 64.602 510.612 65.718 510.612 67.554C510.612 69.39 509.532 70.524 507.984 70.524C506.418 70.524 505.338 69.408 505.338 67.554ZM514.143 60.48C514.143 61.308 514.773 61.884 515.601 61.884C516.429 61.884 517.059 61.308 517.059 60.48C517.059 59.634 516.429 59.058 515.601 59.058C514.773 59.058 514.143 59.634 514.143 60.48ZM516.591 63.126H514.629V72H516.591V63.126ZM519.191 63.126V72H521.153V67.446C521.153 65.61 522.107 64.584 523.583 64.584C524.897 64.584 525.671 65.286 525.671 66.78V72H527.651V66.672C527.651 64.404 526.211 62.964 524.177 62.964C522.485 62.964 521.693 63.72 521.297 64.494H521.117V63.126H519.191ZM536.901 63.126V64.422H536.721C536.181 63.612 535.281 62.874 533.643 62.874C531.465 62.874 529.575 64.656 529.575 67.428C529.575 70.2 531.465 72 533.643 72C535.281 72 536.181 71.244 536.685 70.488H536.865V71.442C536.865 73.278 535.785 74.178 534.183 74.178C532.581 74.178 531.789 73.278 531.465 72.252L529.701 73.008C530.151 74.322 531.501 75.852 534.219 75.852C537.009 75.852 538.845 74.322 538.845 71.496V63.126H536.901ZM534.219 70.29C532.671 70.29 531.555 69.192 531.555 67.428C531.555 65.664 532.671 64.566 534.219 64.566C535.767 64.566 536.901 65.682 536.901 67.428C536.901 69.192 535.767 70.29 534.219 70.29Z" fill="#2F2F2F" fill-opacity="0.8"/>
<path d="M222.512 165.2V182H225.296V165.2H222.512ZM240.397 165.2H237.757V171.824H237.517C236.845 170.816 235.645 169.832 233.461 169.832C230.557 169.832 228.037 172.232 228.037 176.072C228.037 179.936 230.557 182.336 233.461 182.336C235.645 182.336 236.845 181.352 237.565 180.248H237.805V182H240.397V165.2ZM234.229 172.088C236.293 172.088 237.805 173.576 237.805 176.072C237.805 178.568 236.293 180.056 234.229 180.056C232.165 180.056 230.677 178.592 230.677 176.072C230.677 173.576 232.165 172.088 234.229 172.088ZM243.095 176.024C243.095 179.744 245.543 182.336 249.143 182.336C252.407 182.336 253.799 180.464 254.495 179.216L252.311 178.04C251.831 179.072 250.991 180.056 249.191 180.056C247.295 180.056 245.903 178.736 245.807 176.912H254.783V175.832C254.783 172.208 252.479 169.808 249.047 169.808C245.567 169.808 243.095 172.328 243.095 176.024ZM245.831 174.872C246.047 173.216 247.199 172.088 249.023 172.088C250.775 172.088 251.951 173.168 252.095 174.872H245.831ZM257.157 173.24L259.605 174.056C259.845 172.832 260.685 171.944 262.341 171.944C263.997 171.944 264.789 172.88 264.789 174.152V174.872H261.285C258.645 174.872 256.749 176.12 256.749 178.568C256.749 180.968 258.645 182.336 261.093 182.336C263.349 182.336 264.189 181.16 264.525 180.512H264.837V182H267.357V174.344C267.357 171.44 265.437 169.808 262.365 169.808C259.317 169.808 257.733 171.392 257.157 173.24ZM259.389 178.496C259.389 177.512 260.181 176.912 261.453 176.912H264.789V177.128C264.789 179 263.469 180.176 261.597 180.176C260.181 180.176 259.389 179.504 259.389 178.496ZM269.072 172.304H272.264V179.552C272.264 181.04 273.224 182 274.664 182H278V179.84H275.576C275.144 179.84 274.904 179.6 274.904 179.12V172.304H278.36V170.168H274.904V166.304H272.264V170.168H269.072V172.304ZM280.42 166.64C280.42 167.744 281.26 168.512 282.364 168.512C283.468 168.512 284.308 167.744 284.308 166.64C284.308 165.512 283.468 164.744 282.364 164.744C281.26 164.744 280.42 165.512 280.42 166.64ZM283.684 170.168H281.068V182H283.684V170.168ZM286.405 176.072C286.405 179.912 289.021 182.336 292.573 182.336C296.125 182.336 298.717 179.912 298.717 176.072C298.717 172.256 296.125 169.832 292.573 169.832C289.021 169.832 286.405 172.256 286.405 176.072ZM289.045 176.072C289.045 173.648 290.485 172.136 292.573 172.136C294.637 172.136 296.077 173.624 296.077 176.072C296.077 178.52 294.637 180.032 292.573 180.032C290.485 180.032 289.045 178.544 289.045 176.072ZM301.434 170.168V182H304.05V175.928C304.05 173.48 305.322 172.112 307.29 172.112C309.042 172.112 310.074 173.048 310.074 175.04V182H312.714V174.896C312.714 171.872 310.794 169.952 308.082 169.952C305.826 169.952 304.77 170.96 304.242 171.992H304.002V170.168H301.434Z" fill="#2F2F2F"/>
<path d="M431.512 165.2V182H434.296V175.64H438.256C441.304 175.64 443.608 173.6 443.608 170.432C443.608 167.24 441.376 165.2 438.256 165.2H431.512ZM434.296 167.72H437.968C439.72 167.72 440.824 168.752 440.824 170.432C440.824 172.088 439.72 173.12 437.968 173.12H434.296V167.72ZM448.528 170.168H445.96V182H448.576V174.992C448.576 173.192 449.704 172.352 451.288 172.352H453.112V170.12H451.744C450.208 170.12 449.248 170.576 448.768 171.8H448.528V170.168ZM454.181 176.072C454.181 179.912 456.797 182.336 460.349 182.336C463.901 182.336 466.493 179.912 466.493 176.072C466.493 172.256 463.901 169.832 460.349 169.832C456.797 169.832 454.181 172.256 454.181 176.072ZM456.821 176.072C456.821 173.648 458.261 172.136 460.349 172.136C462.413 172.136 463.853 173.624 463.853 176.072C463.853 178.52 462.413 180.032 460.349 180.032C458.261 180.032 456.821 178.544 456.821 176.072ZM467.748 172.304H470.94V179.552C470.94 181.04 471.9 182 473.34 182H476.676V179.84H474.252C473.82 179.84 473.58 179.6 473.58 179.12V172.304H477.036V170.168H473.58V166.304H470.94V170.168H467.748V172.304ZM478.742 176.072C478.742 179.912 481.358 182.336 484.91 182.336C488.462 182.336 491.054 179.912 491.054 176.072C491.054 172.256 488.462 169.832 484.91 169.832C481.358 169.832 478.742 172.256 478.742 176.072ZM481.382 176.072C481.382 173.648 482.822 172.136 484.91 172.136C486.974 172.136 488.414 173.624 488.414 176.072C488.414 178.52 486.974 180.032 484.91 180.032C482.822 180.032 481.382 178.544 481.382 176.072ZM492.31 172.304H495.502V179.552C495.502 181.04 496.462 182 497.902 182H501.238V179.84H498.814C498.382 179.84 498.142 179.6 498.142 179.12V172.304H501.598V170.168H498.142V166.304H495.502V170.168H492.31V172.304ZM512.897 170.168L509.513 179.072H509.273L505.889 170.168H503.009L508.001 182.6L506.225 186.8H509.081L515.777 170.168H512.897ZM517.934 186.8H520.55V180.32H520.79C521.462 181.352 522.662 182.336 524.846 182.336C527.75 182.336 530.27 179.936 530.27 176.072C530.27 172.232 527.75 169.832 524.846 169.832C522.662 169.832 521.462 170.816 520.742 171.896H520.502V170.168H517.934V186.8ZM524.078 180.056C522.038 180.056 520.526 178.568 520.526 176.072C520.526 173.576 522.038 172.088 524.078 172.088C526.142 172.088 527.63 173.576 527.63 176.072C527.63 178.592 526.142 180.056 524.078 180.056ZM532.248 176.024C532.248 179.744 534.696 182.336 538.296 182.336C541.56 182.336 542.952 180.464 543.648 179.216L541.464 178.04C540.984 179.072 540.144 180.056 538.344 180.056C536.448 180.056 535.056 178.736 534.96 176.912H543.936V175.832C543.936 172.208 541.632 169.808 538.2 169.808C534.72 169.808 532.248 172.328 532.248 176.024ZM534.984 174.872C535.2 173.216 536.352 172.088 538.176 172.088C539.928 172.088 541.104 173.168 541.248 174.872H534.984Z" fill="#2F2F2F"/>
<path d="M660.264 165.2V167.72H665.52V182H668.28V167.72H673.536V165.2H660.264ZM672.638 176.024C672.638 179.744 675.086 182.336 678.686 182.336C681.95 182.336 683.342 180.464 684.038 179.216L681.854 178.04C681.374 179.072 680.534 180.056 678.734 180.056C676.838 180.056 675.446 178.736 675.35 176.912H684.326V175.832C684.326 172.208 682.022 169.808 678.59 169.808C675.11 169.808 672.638 172.328 672.638 176.024ZM675.374 174.872C675.59 173.216 676.742 172.088 678.566 172.088C680.318 172.088 681.494 173.168 681.638 174.872H675.374ZM686.677 173.408C686.677 175.664 688.549 176.552 690.949 176.984L691.765 177.128C693.325 177.416 694.117 177.8 694.117 178.712C694.117 179.624 693.277 180.296 691.765 180.296C690.229 180.296 688.981 179.672 688.645 177.728L686.197 178.328C686.605 180.968 688.717 182.336 691.765 182.336C694.741 182.336 696.661 180.944 696.661 178.52C696.661 176.096 694.717 175.4 692.125 174.92L691.309 174.776C690.013 174.536 689.221 174.152 689.221 173.24C689.221 172.376 689.989 171.848 691.285 171.848C692.581 171.848 693.517 172.4 693.805 173.84L696.205 173.12C695.677 171.128 693.949 169.832 691.285 169.832C688.501 169.832 686.677 171.128 686.677 173.408ZM698.006 172.304H701.198V179.552C701.198 181.04 702.158 182 703.598 182H706.934V179.84H704.51C704.078 179.84 703.838 179.6 703.838 179.12V172.304H707.294V170.168H703.838V166.304H701.198V170.168H698.006V172.304Z" fill="#2F2F2F"/>
<path d="M825.512 165.2V182H828.296V165.2H825.512ZM831.781 170.168V182H834.397V174.896C834.397 173.096 835.333 172.112 836.821 172.112C838.189 172.112 838.981 172.904 838.981 174.272V182H841.621V174.896C841.621 173.096 842.557 172.112 844.045 172.112C845.389 172.112 846.205 172.904 846.205 174.272V182H848.845V174.128C848.845 171.392 847.093 169.952 844.861 169.952C842.941 169.952 841.981 170.816 841.381 171.92H841.141C840.589 170.744 839.557 169.952 837.805 169.952C836.053 169.952 835.093 170.696 834.589 171.656H834.349V170.168H831.781ZM852.135 186.8H854.751V180.32H854.991C855.663 181.352 856.863 182.336 859.047 182.336C861.951 182.336 864.471 179.936 864.471 176.072C864.471 172.232 861.951 169.832 859.047 169.832C856.863 169.832 855.663 170.816 854.943 171.896H854.703V170.168H852.135V186.8ZM858.279 180.056C856.239 180.056 854.727 178.568 854.727 176.072C854.727 173.576 856.239 172.088 858.279 172.088C860.343 172.088 861.831 173.576 861.831 176.072C861.831 178.592 860.343 180.056 858.279 180.056ZM869.81 165.2H867.194V182H869.81V165.2ZM872.531 176.024C872.531 179.744 874.979 182.336 878.579 182.336C881.843 182.336 883.235 180.464 883.931 179.216L881.747 178.04C881.267 179.072 880.427 180.056 878.627 180.056C876.731 180.056 875.339 178.736 875.243 176.912H884.219V175.832C884.219 172.208 881.915 169.808 878.483 169.808C875.003 169.808 872.531 172.328 872.531 176.024ZM875.267 174.872C875.483 173.216 876.635 172.088 878.459 172.088C880.211 172.088 881.387 173.168 881.531 174.872H875.267ZM886.833 170.168V182H889.449V174.896C889.449 173.096 890.385 172.112 891.873 172.112C893.241 172.112 894.033 172.904 894.033 174.272V182H896.673V174.896C896.673 173.096 897.609 172.112 899.097 172.112C900.441 172.112 901.257 172.904 901.257 174.272V182H903.897V174.128C903.897 171.392 902.145 169.952 899.913 169.952C897.993 169.952 897.033 170.816 896.433 171.92H896.193C895.641 170.744 894.609 169.952 892.857 169.952C891.105 169.952 890.145 170.696 889.641 171.656H889.401V170.168H886.833ZM906.444 176.024C906.444 179.744 908.892 182.336 912.492 182.336C915.756 182.336 917.148 180.464 917.844 179.216L915.66 178.04C915.18 179.072 914.34 180.056 912.54 180.056C910.644 180.056 909.252 178.736 909.156 176.912H918.132V175.832C918.132 172.208 915.828 169.808 912.396 169.808C908.916 169.808 906.444 172.328 906.444 176.024ZM909.18 174.872C909.396 173.216 910.548 172.088 912.372 172.088C914.124 172.088 915.3 173.168 915.444 174.872H909.18ZM920.746 170.168V182H923.362V175.928C923.362 173.48 924.634 172.112 926.602 172.112C928.354 172.112 929.386 173.048 929.386 175.04V182H932.026V174.896C932.026 171.872 930.106 169.952 927.394 169.952C925.138 169.952 924.082 170.96 923.554 171.992H923.314V170.168H920.746ZM933.757 172.304H936.949V179.552C936.949 181.04 937.909 182 939.349 182H942.685V179.84H940.261C939.829 179.84 939.589 179.6 939.589 179.12V172.304H943.045V170.168H939.589V166.304H936.949V170.168H933.757V172.304Z" fill="#2F2F2F"/>
<path fill-rule="evenodd" clip-rule="evenodd" d="M0.0253906 88.0808C0.0253906 88.067 0.0256492 88.0533 0.0261618 88.0396C0.0256493 88.0265 0.0253906 88.0133 0.0253906 88C0.0253906 87.4477 0.473106 87 1.02539 87H1.10624H313.552C313.614 87 313.674 87.0056 313.733 87.0162C313.793 87.0055 313.856 87 313.92 87C314.517 87 315.001 87.4839 315.001 88.0808V112.919C315.001 113.516 314.517 114 313.92 114C313.323 114 312.839 113.516 312.839 112.919V89H2.18709V112.919C2.18709 113.516 1.70318 114 1.10624 114C0.509303 114 0.0253906 113.516 0.0253906 112.919V88.0808Z" fill="#2F2F2F" fill-opacity="0.8"/>
<path fill-rule="evenodd" clip-rule="evenodd" d="M430 88.0973C430 88.0806 430 88.064 430.001 88.0475C430 88.0318 430 88.0159 430 88C430 87.4477 430.448 87 431 87H431.097H942.532C942.599 87 942.663 87.0064 942.726 87.0186C942.791 87.0064 942.859 87 942.928 87C943.534 87 944.025 87.4913 944.025 88.0973V112.903C944.025 113.509 943.534 114 942.928 114C942.322 114 941.831 113.509 941.831 112.903V89H432.195V112.903C432.195 113.509 431.703 114 431.097 114C430.491 114 430 113.509 430 112.903V88.0973Z" fill="#2F2F2F" fill-opacity="0.8"/>
</svg>
